<svg width="263" height="307" viewBox="0 0 263 307" fill="none" xmlns="http://www.w3.org/2000/svg">
<g clip-path="url(#clip0_2_289)">
<path d="M1.88016 146.834C2.84651 148.398 4.15497 149.737 5.71336 150.758C7.27175 151.778 9.04218 152.456 10.8999 152.742C12.7577 153.028 14.6575 152.916 16.4658 152.413C18.274 151.911 19.9465 151.031 21.3656 149.834L61.0297 171.876L59.5514 148.898L22.1123 131.49C19.88 129.313 16.9011 128.005 13.7402 127.815C10.5794 127.624 7.45608 128.563 4.9622 130.455C2.46833 132.346 0.777132 135.058 0.209092 138.077C-0.358947 141.096 0.235632 144.211 1.88016 146.834Z" fill="#FFB8B8"/>
<path d="M116.712 235.133C104.946 251.089 105.367 277.784 108.65 307H164.278L166.697 301.532L169.922 307H222.326C222.326 307 218.295 232.79 211.039 230.446C203.783 228.103 116.712 235.133 116.712 235.133Z" fill="#2F2E41"/>
<path d="M164.278 68.4284C179.862 68.4284 192.496 56.1876 192.496 41.0878C192.496 25.988 179.862 13.7473 164.278 13.7473C148.694 13.7473 136.061 25.988 136.061 41.0878C136.061 56.1876 148.694 68.4284 164.278 68.4284Z" fill="#FFB8B8"/>
<path d="M184.673 75.5218L190.191 85.7694L228.357 102.255L218.325 196.326L214.102 206.068L216.384 214.527L210.884 220.771C216.405 225.611 217.106 230.678 214.102 235.919L196.527 239.82C196.527 239.82 98.8013 248.24 107.037 233.571C116.036 217.543 118.328 170.207 98.4617 144.912C81.596 123.437 94.5445 95.5715 94.5445 95.5715L134.55 83.9872L149.265 75.5218L184.673 75.5218Z" fill="#3F3D56"/>
<path d="M176.806 1.03818C176.938 0.766347 177.152 0.539116 177.418 0.385675C177.685 0.232233 177.993 0.159584 178.303 0.177062C165.385 -0.57167 151.778 0.887223 140.97 7.78494C138.352 9.45604 135.883 11.4493 133.034 12.6615C132.899 12.7201 132.783 12.8113 132.696 12.9264C132.608 13.0415 132.553 13.1765 132.536 13.3183C132.518 13.4602 132.539 13.604 132.595 13.7358C132.652 13.8677 132.743 13.9831 132.859 14.0708L133.172 14.3086C133.296 14.4024 133.39 14.5272 133.446 14.6695C133.501 14.8117 133.515 14.9659 133.486 15.1154C133.457 15.2648 133.387 15.4038 133.282 15.5171C133.178 15.6304 133.043 15.7137 132.893 15.7581C132.736 15.8043 132.597 15.8929 132.491 16.0134C132.384 16.1339 132.316 16.2813 132.293 16.4382C132.271 16.5952 132.295 16.7551 132.363 16.8992C132.431 17.0434 132.54 17.1656 132.677 17.2516L135.076 18.7535C135.196 18.8278 135.296 18.9303 135.365 19.0516C135.434 19.1729 135.471 19.3091 135.472 19.4477C135.473 19.5863 135.438 19.7229 135.37 19.845C135.302 19.967 135.203 20.0706 135.083 20.1461C134.88 20.2677 134.667 20.3725 134.446 20.4594C134.308 20.5095 134.186 20.5932 134.091 20.7023C133.997 20.8113 133.933 20.9422 133.905 21.0822C133.878 21.2222 133.889 21.3667 133.936 21.5017C133.983 21.6367 134.065 21.7577 134.174 21.8529C135.213 22.7487 136.009 23.877 136.495 25.1395C137.294 27.1533 137.438 29.3465 137.573 31.5001C138.399 28.3927 141.899 26.5635 145.205 26.3777C148.511 26.1918 151.736 27.2488 154.953 28.0086C161.961 29.6587 169.24 29.93 176.358 28.8064C173.941 33.5064 175.979 39.1125 178.031 43.9728L184.673 41.2146C193.794 36.2258 187.44 57.3291 184.03 60.2262C190.993 62.565 209.217 36.606 203.354 26.7591C200.305 21.6369 202.469 15.0305 196.474 10.1724C193.535 7.17515 187.668 8.50733 184.673 6.01624C183.494 5.03579 185.291 2.41272 183.67 1.84107C183.132 1.6512 176.895 0.846821 176.806 1.03818Z" fill="#2F2E41"/>
<path d="M129.009 86.6338C123.832 108.907 110.551 160.911 97.0782 171.787C96.2237 172.569 95.1992 173.155 94.08 173.502C46.7213 184.681 31.5466 156.166 31.5466 156.166C31.5466 156.166 44.2382 150.173 44.5601 138.46L70.1547 146.155L92.466 97.5052L95.7493 94.5378L95.7676 94.52L129.009 86.6338Z" fill="#3F3D56"/>
<path d="M229.986 292.314C231.342 291.051 232.396 289.515 233.073 287.814C233.75 286.114 234.034 284.29 233.906 282.472C233.777 280.654 233.238 278.885 232.327 277.29C231.417 275.695 230.156 274.313 228.635 273.242L241.911 230.847L219.131 237.394L210.016 276.65C208.328 279.246 207.68 282.352 208.197 285.379C208.714 288.407 210.359 291.145 212.821 293.076C215.282 295.007 218.389 295.996 221.553 295.855C224.716 295.715 227.717 294.455 229.986 292.314Z" fill="#FFB8B8"/>
<path d="M217.835 99.883L228.357 102.255C228.357 102.255 271.851 184.248 261.37 199.871C250.889 215.494 238.05 267.219 238.05 267.219C238.05 267.219 219.059 263.561 211.803 254.187L225.091 192.841L211.385 141.284L217.835 99.883Z" fill="#3F3D56"/>
<path d="M18.2002 221.641L18.5781 89.5851C18.5888 86.9123 19.6934 84.3528 21.6493 82.4681C23.6053 80.5834 26.253 79.5274 29.0115 79.5318L131.941 79.8082C134.7 79.8187 137.342 80.8889 139.287 82.7841C141.232 84.6793 142.322 87.2447 142.317 89.9175L141.939 221.973C141.929 224.646 140.824 227.205 138.868 229.09C136.912 230.975 134.264 232.031 131.506 232.026L28.576 231.75C25.8175 231.74 23.1759 230.669 21.2307 228.774C19.2855 226.879 18.1957 224.313 18.2002 221.641Z" fill="#E6E6E6"/>
<path d="M26.2097 181.776L26.4526 96.8783C26.4626 94.3751 27.497 91.978 29.3289 90.2129C31.1607 88.4478 33.6404 87.4589 36.2238 87.463L124.683 87.7006C127.267 87.7103 129.741 88.7126 131.563 90.4875C133.385 92.2624 134.405 94.665 134.401 97.1683L134.065 214.68C134.055 217.183 133.02 219.58 131.188 221.345C129.356 223.11 126.877 224.099 124.293 224.095L69.4943 223.948C57.9866 223.904 46.9667 219.44 38.8521 211.534C30.7374 203.628 26.1908 192.926 26.2097 181.776Z" fill="white"/>
<path d="M114.547 124.755H45.5717C44.474 124.755 43.4214 124.332 42.6453 123.58C41.8691 122.828 41.4331 121.808 41.4331 120.745C41.4331 119.681 41.8691 118.662 42.6453 117.91C43.4214 117.158 44.474 116.735 45.5717 116.735H114.547C115.645 116.735 116.698 117.158 117.474 117.91C118.25 118.662 118.686 119.681 118.686 120.745C118.686 121.808 118.25 122.828 117.474 123.58C116.698 124.332 115.645 124.755 114.547 124.755Z" fill="#1154A6"/>
<path d="M60.7463 106.265H45.5717C44.474 106.265 43.4214 105.842 42.6453 105.09C41.8691 104.338 41.4331 103.318 41.4331 102.255C41.4331 101.191 41.8691 100.171 42.6453 99.4192C43.4214 98.6672 44.474 98.2448 45.5717 98.2448H60.7463C61.8439 98.2448 62.8966 98.6672 63.6727 99.4192C64.4488 100.171 64.8849 101.191 64.8849 102.255C64.8849 103.318 64.4488 104.338 63.6727 105.09C62.8966 105.842 61.8439 106.265 60.7463 106.265Z" fill="#1154A6"/>
<path d="M114.547 143.245H45.5717C44.474 143.245 43.4214 142.823 42.6453 142.071C41.8691 141.319 41.4331 140.299 41.4331 139.235C41.4331 138.172 41.8691 137.152 42.6453 136.4C43.4214 135.648 44.474 135.225 45.5717 135.225H114.547C115.645 135.225 116.698 135.648 117.474 136.4C118.25 137.152 118.686 138.172 118.686 139.235C118.686 140.299 118.25 141.319 117.474 142.071C116.698 142.823 115.645 143.245 114.547 143.245Z" fill="#1154A6"/>
<path d="M114.547 161.735H45.5717C44.474 161.735 43.4214 161.313 42.6453 160.561C41.8691 159.809 41.4331 158.789 41.4331 157.726C41.4331 156.662 41.8691 155.642 42.6453 154.89C43.4214 154.138 44.474 153.716 45.5717 153.716H114.547C115.645 153.716 116.698 154.138 117.474 154.89C118.25 155.642 118.686 156.662 118.686 157.726C118.686 158.789 118.25 159.809 117.474 160.561C116.698 161.313 115.645 161.735 114.547 161.735Z" fill="#1154A6"/>
<path d="M108.966 210.457C118.061 210.457 125.434 203.313 125.434 194.501C125.434 185.689 118.061 178.545 108.966 178.545C99.8717 178.545 92.499 185.689 92.499 194.501C92.499 203.313 99.8717 210.457 108.966 210.457Z" fill="#1154A6"/>
<path d="M106.72 202.805C106.435 202.805 106.155 202.741 105.901 202.618C105.646 202.494 105.425 202.315 105.255 202.095L100.762 196.291C100.617 196.105 100.512 195.892 100.452 195.666C100.392 195.441 100.379 195.205 100.413 194.974C100.447 194.744 100.527 194.521 100.65 194.321C100.772 194.12 100.935 193.945 101.127 193.805C101.32 193.665 101.539 193.563 101.772 193.505C102.005 193.447 102.248 193.435 102.486 193.468C102.725 193.501 102.954 193.579 103.161 193.698C103.368 193.817 103.549 193.975 103.693 194.161L106.632 197.958L114.181 186.987C114.314 186.792 114.485 186.625 114.685 186.494C114.885 186.364 115.11 186.273 115.346 186.227C115.582 186.181 115.826 186.18 116.062 186.225C116.299 186.271 116.524 186.361 116.724 186.49C116.925 186.62 117.097 186.786 117.231 186.98C117.365 187.175 117.458 187.392 117.505 187.621C117.552 187.851 117.552 188.086 117.504 188.315C117.457 188.544 117.363 188.762 117.229 188.956L108.244 202.015C108.082 202.251 107.863 202.446 107.607 202.583C107.35 202.721 107.064 202.797 106.771 202.805C106.754 202.805 106.737 202.805 106.72 202.805Z" fill="white"/>
<path d="M73.8517 48.7889C78.169 48.7889 81.6689 45.3978 81.6689 41.2146C81.6689 37.0314 78.169 33.6403 73.8517 33.6403C69.5343 33.6403 66.0344 37.0314 66.0344 41.2146C66.0344 45.3978 69.5343 48.7889 73.8517 48.7889Z" fill="#F2F2F2"/>
<path d="M45.3418 266.662C49.6591 266.662 53.159 263.271 53.159 259.088C53.159 254.905 49.6591 251.514 45.3418 251.514C41.0244 251.514 37.5245 254.905 37.5245 259.088C37.5245 263.271 41.0244 266.662 45.3418 266.662Z" fill="#F2F2F2"/>
<path d="M225.139 78.1951C229.456 78.1951 232.956 74.8039 232.956 70.6208C232.956 66.4376 229.456 63.0464 225.139 63.0464C220.821 63.0464 217.321 66.4376 217.321 70.6208C217.321 74.8039 220.821 78.1951 225.139 78.1951Z" fill="#F2F2F2"/>
</g>
<defs>
<clipPath id="clip0_2_289">
<rect width="263" height="307" fill="white"/>
</clipPath>
</defs>
</svg>
