<svg width="164" height="22" viewBox="0 0 164 22" fill="none" xmlns="http://www.w3.org/2000/svg">
<path d="M8.95417 3.304L6.91017 4.004V18.396L8.95417 18.984V21H0.834172V18.984L2.90617 18.396V4.004L0.834172 3.444V1.428L8.95417 1.288V3.304ZM20.6107 11.312V14.28H11.8187V11.312H20.6107ZM32.0148 21.336C30.4841 21.336 29.0748 20.9533 27.7868 20.188C26.5175 19.4227 25.5001 18.2933 24.7348 16.8C23.9881 15.3067 23.6148 13.4587 23.6148 11.256C23.6148 9.09067 23.9881 7.24267 24.7348 5.712C25.4815 4.18133 26.5361 3.00533 27.8988 2.184C29.2615 1.36267 30.8575 0.951999 32.6868 0.951999C34.5721 0.951999 36.6721 1.43733 38.9868 2.408L38.7348 7.448H36.3548L35.7668 4.592C34.6841 4.21867 33.7041 4.032 32.8268 4.032C31.2215 4.032 29.9988 4.62933 29.1588 5.824C28.3375 7 27.9268 8.64267 27.9268 10.752C27.9268 13.216 28.4028 15.0547 29.3548 16.268C30.3255 17.4813 31.5481 18.088 33.0228 18.088C33.7508 18.088 34.5255 17.9387 35.3468 17.64C36.1681 17.3227 36.9801 16.8467 37.7828 16.212L39.2668 18.536C38.1095 19.4693 36.9055 20.1693 35.6548 20.636C34.4228 21.1027 33.2095 21.336 32.0148 21.336ZM47.058 18.984V21H39.75V18.984L41.374 18.48L47.786 1.344L51.902 1.232L57.95 18.48L59.546 18.984V21H51.51V18.984L53.442 18.424L52.602 15.708H45.966L45.042 18.424L47.058 18.984ZM46.862 12.936H51.818L49.522 4.956L46.862 12.936ZM68.9081 1.288C71.6521 1.288 73.8361 2.08133 75.4601 3.668C77.0841 5.25467 77.8961 7.63467 77.8961 10.808C77.8961 13.0293 77.5041 14.896 76.7201 16.408C75.9361 17.92 74.8254 19.068 73.3881 19.852C71.9507 20.6173 70.2614 21 68.3201 21H60.0881V18.984L62.1601 18.396V4.004L60.0881 3.444V1.428L66.4441 1.288H68.9081ZM68.5161 18.116C69.1134 18.116 69.7107 18.032 70.3081 17.864C70.9054 17.6773 71.4467 17.3413 71.9321 16.856C72.4361 16.3707 72.8374 15.6613 73.1361 14.728C73.4347 13.7947 73.5841 12.5627 73.5841 11.032C73.5841 9.55733 73.4441 8.372 73.1641 7.476C72.8841 6.56133 72.5107 5.87067 72.0441 5.404C71.5774 4.91867 71.0547 4.592 70.4761 4.424C69.9161 4.256 69.3561 4.172 68.7961 4.172H66.1641V18.116H68.5161ZM92.2857 15.736H94.6657L94.6097 21H80.0217V18.984L82.0937 18.396V4.004L80.0217 3.444V1.428L86.0137 1.288H94.3017V6.328H91.9217L91.4737 4.172H86.0977V9.576H92.1177V12.348H86.0977V18.116H91.8097L92.2857 15.736ZM119.512 3.304L117.468 4.004V18.396L119.512 18.984V21H111.7V18.984L113.772 18.396V6.804L109.236 15.876L106.716 16.016L102.376 6.776V18.424L104.448 18.984V21H97.0842V18.984L99.1562 18.396V4.004L97.0842 3.444V1.428L104.056 1.288L108.452 11.452L113.044 1.428L119.512 1.288V3.304ZM129.649 3.304L127.605 4.004V18.396L129.649 18.984V21H121.529V18.984L123.601 18.396V4.004L121.529 3.444V1.428L129.649 1.288V3.304ZM140.214 21.336C138.683 21.336 137.274 20.9533 135.986 20.188C134.717 19.4227 133.699 18.2933 132.934 16.8C132.187 15.3067 131.814 13.4587 131.814 11.256C131.814 9.09067 132.187 7.24267 132.934 5.712C133.681 4.18133 134.735 3.00533 136.098 2.184C137.461 1.36267 139.057 0.951999 140.886 0.951999C142.771 0.951999 144.871 1.43733 147.186 2.408L146.934 7.448H144.554L143.966 4.592C142.883 4.21867 141.903 4.032 141.026 4.032C139.421 4.032 138.198 4.62933 137.358 5.824C136.537 7 136.126 8.64267 136.126 10.752C136.126 13.216 136.602 15.0547 137.554 16.268C138.525 17.4813 139.747 18.088 141.222 18.088C141.95 18.088 142.725 17.9387 143.546 17.64C144.367 17.3227 145.179 16.8467 145.982 16.212L147.466 18.536C146.309 19.4693 145.105 20.1693 143.854 20.636C142.622 21.1027 141.409 21.336 140.214 21.336ZM153.817 6.244C153.817 6.78533 154.004 7.23333 154.377 7.588C154.751 7.94267 155.236 8.25067 155.833 8.512C156.431 8.75467 157.084 8.99733 157.793 9.24C158.521 9.464 159.24 9.72533 159.949 10.024C160.677 10.304 161.34 10.668 161.937 11.116C162.553 11.5453 163.039 12.096 163.393 12.768C163.767 13.44 163.953 14.28 163.953 15.288C163.953 16.6693 163.589 17.808 162.861 18.704C162.152 19.6 161.191 20.272 159.977 20.72C158.783 21.1493 157.467 21.364 156.029 21.364C155.04 21.364 154.023 21.2613 152.977 21.056C151.932 20.8693 150.915 20.58 149.925 20.188L150.065 14.868H152.389L152.893 17.724C153.957 18.172 155.068 18.396 156.225 18.396C157.252 18.396 158.139 18.1907 158.885 17.78C159.632 17.3507 160.005 16.688 160.005 15.792C160.005 15.2133 159.819 14.7373 159.445 14.364C159.091 13.9907 158.615 13.6827 158.017 13.44C157.42 13.1787 156.767 12.9453 156.057 12.74C155.348 12.516 154.629 12.264 153.901 11.984C153.192 11.704 152.539 11.3493 151.941 10.92C151.344 10.4907 150.859 9.94933 150.485 9.296C150.131 8.624 149.953 7.784 149.953 6.776C149.953 5.46933 150.261 4.38667 150.877 3.528C151.512 2.65067 152.371 2.00667 153.453 1.596C154.555 1.16667 155.787 0.951999 157.149 0.951999C159.128 0.951999 161.181 1.36267 163.309 2.184L163.001 7.084H160.621L160.089 4.34C159.193 4.04133 158.288 3.892 157.373 3.892C156.421 3.892 155.591 4.07867 154.881 4.452C154.172 4.80667 153.817 5.404 153.817 6.244Z" fill="#1154A6"/>
</svg>
