<svg width="413" height="332" viewBox="0 0 413 332" fill="none" xmlns="http://www.w3.org/2000/svg">
<g clip-path="url(#clip0_2_8)">
<path d="M104.181 318.591C103.725 318.607 103.274 318.512 102.889 318.317C102.503 318.123 102.202 317.838 102.026 317.502C101.85 317.166 101.808 316.795 101.905 316.44C102.002 316.084 102.234 315.761 102.569 315.514C102.625 315.336 102.665 315.208 102.721 315.03C102.285 314.146 101.528 313.386 100.547 312.848C99.566 312.309 98.4059 312.017 97.2153 312.008C96.0247 311.999 94.8579 312.274 93.8644 312.797C92.871 313.321 92.0961 314.069 91.6392 314.947C89.0023 319.872 85.5896 324.97 87.2868 330.394C76.0762 311.436 79.8887 287.853 96.4564 271.64C101.036 269.627 104.748 266.051 105.714 261.898C103.448 262.511 100.622 261.04 102.326 259.135C103.064 258.407 103.81 257.685 104.549 256.956C95.9394 249.64 85.6814 261.139 95.1579 271.013C92.0579 274.115 89.3727 277.466 87.1461 281.013C87.6603 277.247 87.0465 273.437 85.3554 269.897C83.6415 266.598 80.4289 263.819 77.5999 260.967C74.1602 257.491 67.0808 259.095 66.6179 263.505C69.7924 264.337 70.2048 267.996 66.5736 268.497C67.5247 276.701 74.242 284.241 83.4937 287.839C80.0772 295.489 78.743 303.631 79.5803 311.724C77.9473 302.266 65.2234 299.971 56.33 296.211C55.7639 295.922 55.1045 295.77 54.4321 295.774C53.7597 295.778 53.1034 295.939 52.5432 296.236C51.9831 296.532 51.5433 296.953 51.2776 297.446C51.0118 297.939 50.9316 298.483 51.0467 299.011C52.2741 299.41 53.449 299.904 54.554 300.488C55.0717 300.765 55.4691 301.164 55.6917 301.629C55.9143 302.094 55.9512 302.603 55.7973 303.085C55.6435 303.568 55.3064 304.001 54.8322 304.324C54.3581 304.648 53.7702 304.846 53.149 304.893C57.6319 313.746 69.2218 319.691 81.1254 319.657C82.2693 323.624 83.9268 327.485 86.071 331.178H103.738C103.802 331.021 103.859 330.859 103.916 330.703C102.28 330.785 100.639 330.707 99.027 330.47C103.354 326.383 106.7 324.297 104.182 318.591L104.181 318.591Z" fill="#F2F2F2"/>
<path d="M261.688 318.591C262.144 318.607 262.595 318.512 262.981 318.317C263.366 318.123 263.667 317.838 263.843 317.502C264.019 317.166 264.062 316.795 263.965 316.44C263.868 316.084 263.636 315.761 263.301 315.514C263.245 315.336 263.205 315.208 263.149 315.03C263.585 314.146 264.342 313.386 265.323 312.848C266.304 312.309 267.464 312.017 268.654 312.008C269.845 311.999 271.012 312.274 272.005 312.797C272.999 313.321 273.773 314.069 274.23 314.947C276.867 319.872 280.28 324.97 278.583 330.394C289.793 311.436 285.981 287.853 269.413 271.64C264.834 269.627 261.122 266.051 260.156 261.898C262.422 262.511 265.248 261.04 263.544 259.135C262.805 258.407 262.059 257.685 261.321 256.956C269.93 249.64 280.188 261.139 270.712 271.013C273.812 274.115 276.497 277.466 278.723 281.013C278.209 277.247 278.823 273.437 280.514 269.897C282.228 266.598 285.441 263.819 288.27 260.967C291.709 257.491 298.789 259.095 299.252 263.505C296.077 264.337 295.665 267.996 299.296 268.497C298.345 276.701 291.628 284.241 282.376 287.839C285.792 295.489 287.126 303.631 286.289 311.724C287.922 302.266 300.646 299.971 309.54 296.211C310.106 295.922 310.765 295.77 311.437 295.774C312.11 295.778 312.766 295.939 313.326 296.236C313.886 296.532 314.326 296.953 314.592 297.446C314.858 297.939 314.938 298.483 314.823 299.011C313.595 299.41 312.421 299.904 311.316 300.488C310.798 300.765 310.4 301.164 310.178 301.629C309.955 302.094 309.918 302.603 310.072 303.085C310.226 303.568 310.563 304.001 311.037 304.324C311.511 304.648 312.099 304.846 312.721 304.893C308.238 313.746 296.648 319.691 284.744 319.657C283.6 323.624 281.943 327.485 279.798 331.178H262.131C262.068 331.021 262.011 330.859 261.954 330.703C263.589 330.785 265.231 330.707 266.843 330.47C262.516 326.383 259.17 324.297 261.688 318.591L261.688 318.591Z" fill="#F2F2F2"/>
<path d="M268.239 320.684L260.631 322.065L250.333 299.305L261.563 297.266L268.239 320.684Z" fill="#FFB6B6"/>
<path d="M270.314 326.969L246.916 331.216L246.849 330.98C246.3 329.053 246.732 327.031 248.051 325.358C249.37 323.685 251.468 322.499 253.883 322.06L253.884 322.06L257.42 318.697L266.132 319.836L268.174 319.466L270.314 326.969Z" fill="#2F2E41"/>
<path d="M390.977 209.744L395.159 215L371.743 230.376L365.569 222.618L390.977 209.744Z" fill="#FFB6B6"/>
<path d="M397.7 206.076L410.564 222.239L410.308 222.369C408.217 223.428 405.684 223.782 403.267 223.351C400.849 222.921 398.745 221.742 397.417 220.073L397.417 220.073L392.26 218.543L390.683 211.612L389.56 210.201L397.7 206.076Z" fill="#2F2E41"/>
<path d="M148.445 153.55L146.566 144.859L175.136 134.565L181.305 125.848C181.106 125.083 181.176 124.289 181.506 123.554C181.837 122.819 182.416 122.171 183.18 121.681C183.943 121.192 184.861 120.881 185.832 120.782C186.803 120.683 187.79 120.8 188.683 121.12C189.576 121.44 190.34 121.951 190.892 122.597C191.444 123.242 191.762 123.996 191.81 124.777C191.859 125.557 191.636 126.333 191.166 127.018C190.697 127.704 189.999 128.272 189.15 128.661L179 141.182L148.445 153.55Z" fill="#A0616A"/>
<path d="M139.76 146.445L152.626 141.201L156.032 151.405L147.095 156.691L139.76 146.445Z" fill="#1154A6"/>
<path d="M110.89 319.894L118.669 319.893L122.37 295.951L110.888 295.951L110.89 319.894Z" fill="#A0616A"/>
<path d="M121.258 320.452V316.244L119.213 316.344L110.888 316.737L108.961 316.832L107.488 330.925L107.409 331.681H112.933L113.11 330.931L113.913 327.52L115.984 330.931L116.438 331.681H131.082C131.953 331.677 132.788 331.398 133.403 330.906C134.019 330.414 134.366 329.748 134.37 329.052C134.988 326.749 122.81 321.769 121.258 320.452Z" fill="#2F2E41"/>
<path d="M18.5486 224.875L16.7352 230.912L45.0511 239.366L47.7272 230.457L18.5486 224.875Z" fill="#A0616A"/>
<path d="M16.066 232.79L21.1944 233.771L21.5498 232.161L23.0112 225.609L23.3454 224.092L6.51306 219.663L5.61064 219.426L4.32274 223.712L5.19576 224.025L9.16516 225.442L4.52574 226.255L3.50553 226.432L0.0910766 237.795C-0.106743 238.472 0.0382195 239.184 0.494513 239.777C0.950807 240.369 1.68157 240.794 2.52812 240.959C5.19121 241.976 14.0991 233.687 16.066 232.79Z" fill="#2F2E41"/>
<path d="M122.918 164.938L112.905 161.203L92.9373 180.485L80.7745 182.94C79.9022 182.585 78.924 182.43 77.9479 182.491C76.9718 182.552 76.0359 182.827 75.2434 183.286C74.451 183.744 73.8329 184.369 73.4574 185.091C73.0819 185.812 72.9637 186.602 73.1157 187.374C73.2678 188.146 73.6842 188.869 74.319 189.464C74.9539 190.059 75.7823 190.502 76.713 190.744C77.6436 190.987 78.6402 191.02 79.5926 190.839C80.5451 190.658 81.4163 190.27 82.1101 189.719L99.9203 185.203L122.918 164.938Z" fill="#A0616A"/>
<path d="M264.876 93.5585C262.753 93.5585 260.678 93.0563 258.914 92.1154C257.149 91.1745 255.773 89.8371 254.961 88.2725C254.149 86.7078 253.936 84.9861 254.351 83.325C254.765 81.664 255.787 80.1382 257.287 78.9406C258.788 77.7431 260.7 76.9275 262.782 76.5971C264.864 76.2667 267.021 76.4363 268.982 77.0844C270.943 77.7325 272.619 78.8301 273.798 80.2382C274.978 81.6464 275.607 83.302 275.607 84.9956C275.604 87.2658 274.472 89.4424 272.46 91.0477C270.449 92.653 267.721 93.556 264.876 93.5585V93.5585ZM264.876 77.4153C262.997 77.4153 261.16 77.8599 259.598 78.6928C258.036 79.5257 256.818 80.7096 256.099 82.0947C255.38 83.4798 255.192 85.004 255.558 86.4744C255.925 87.9448 256.83 89.2955 258.158 90.3556C259.487 91.4158 261.18 92.1377 263.022 92.4302C264.865 92.7227 266.775 92.5726 268.511 91.9988C270.247 91.4251 271.731 90.4535 272.774 89.2069C273.818 87.9604 274.375 86.4948 274.375 84.9956C274.373 82.9858 273.371 81.0591 271.59 79.638C269.809 78.2169 267.394 77.4176 264.876 77.4153V77.4153Z" fill="#E6E6E6"/>
<path d="M264.118 88.2215C264.097 88.2215 264.075 88.2209 264.054 88.2201C263.863 88.2127 263.677 88.1726 263.508 88.1024C263.338 88.0323 263.19 87.9337 263.073 87.8135L261.383 86.0794C261.276 85.9699 261.197 85.8447 261.151 85.711C261.105 85.5773 261.092 85.4376 261.114 85.3C261.135 85.1623 261.191 85.0294 261.277 84.9089C261.363 84.7883 261.477 84.6824 261.615 84.5973L261.675 84.5595C261.813 84.4743 261.97 84.4114 262.137 84.3746C262.305 84.3378 262.48 84.3277 262.652 84.3449C262.825 84.3621 262.992 84.4063 263.143 84.4749C263.294 84.5435 263.426 84.6352 263.533 84.7447C263.619 84.8322 263.727 84.9039 263.85 84.955C263.973 85.0061 264.109 85.0354 264.248 85.0408C264.387 85.0461 264.525 85.0276 264.654 84.9863C264.783 84.945 264.899 84.882 264.995 84.8015L268.427 81.9101C268.669 81.707 269.002 81.5887 269.352 81.5811C269.703 81.5735 270.044 81.6772 270.299 81.8695L270.355 81.9123C270.481 82.0077 270.583 82.122 270.653 82.2486C270.724 82.3753 270.763 82.5118 270.768 82.6505C270.773 82.7891 270.743 82.9272 270.681 83.0567C270.619 83.1862 270.525 83.3047 270.405 83.4053L265.079 87.8916C264.955 87.9958 264.806 88.0788 264.641 88.1355C264.476 88.1923 264.298 88.2215 264.118 88.2215Z" fill="#E6E6E6"/>
<path d="M211.304 197.232C209.182 197.232 207.107 196.729 205.342 195.788C203.578 194.847 202.202 193.51 201.39 191.945C200.578 190.381 200.365 188.659 200.779 186.998C201.193 185.337 202.215 183.811 203.716 182.614C205.217 181.416 207.129 180.601 209.211 180.27C211.292 179.94 213.45 180.109 215.411 180.757C217.372 181.406 219.048 182.503 220.227 183.911C221.406 185.319 222.036 186.975 222.036 188.669C222.032 190.939 220.901 193.115 218.889 194.721C216.877 196.326 214.149 197.229 211.304 197.232V197.232ZM211.304 181.088C209.425 181.088 207.589 181.533 206.027 182.366C204.464 183.199 203.247 184.383 202.528 185.768C201.809 187.153 201.621 188.677 201.987 190.147C202.354 191.618 203.258 192.969 204.587 194.029C205.916 195.089 207.608 195.811 209.451 196.103C211.294 196.396 213.204 196.246 214.94 195.672C216.676 195.098 218.159 194.126 219.203 192.88C220.247 191.633 220.804 190.168 220.804 188.669C220.801 186.659 219.8 184.732 218.019 183.311C216.238 181.89 213.823 181.091 211.304 181.088V181.088Z" fill="#E6E6E6"/>
<path d="M210.547 191.894C210.525 191.894 210.504 191.894 210.482 191.893C210.292 191.886 210.106 191.846 209.936 191.775C209.767 191.705 209.619 191.607 209.502 191.487L207.811 189.752C207.704 189.643 207.626 189.518 207.58 189.384C207.534 189.25 207.521 189.111 207.542 188.973C207.564 188.835 207.619 188.702 207.705 188.582C207.791 188.461 207.906 188.355 208.043 188.27L208.104 188.232C208.241 188.147 208.398 188.084 208.566 188.048C208.733 188.011 208.909 188.001 209.081 188.018C209.254 188.035 209.42 188.079 209.571 188.148C209.722 188.216 209.855 188.308 209.962 188.418C210.047 188.505 210.155 188.577 210.279 188.628C210.402 188.679 210.538 188.708 210.676 188.714C210.815 188.719 210.954 188.701 211.083 188.659C211.212 188.618 211.328 188.555 211.424 188.475L214.856 185.583C215.098 185.38 215.43 185.262 215.781 185.254C216.132 185.247 216.472 185.35 216.727 185.543L216.784 185.585C216.91 185.681 217.011 185.795 217.082 185.922C217.153 186.048 217.192 186.185 217.196 186.323C217.201 186.462 217.172 186.6 217.109 186.73C217.047 186.859 216.954 186.978 216.834 187.078L211.507 191.565C211.384 191.669 211.235 191.752 211.07 191.809C210.905 191.865 210.727 191.895 210.547 191.894Z" fill="#E6E6E6"/>
<path d="M93.6936 81.7663C91.5712 81.7663 89.4964 81.2641 87.7316 80.3232C85.9669 79.3823 84.5914 78.0449 83.7792 76.4803C82.9669 74.9156 82.7544 73.1939 83.1685 71.5328C83.5826 69.8718 84.6046 68.346 86.1054 67.1484C87.6062 65.9509 89.5184 65.1353 91.6001 64.8049C93.6817 64.4745 95.8395 64.6441 97.8004 65.2922C99.7613 65.9403 101.437 67.0379 102.616 68.446C103.796 69.8542 104.425 71.5098 104.425 73.2034C104.422 75.4736 103.29 77.6502 101.278 79.2555C99.2665 80.8608 96.5388 81.7638 93.6936 81.7663ZM93.6936 65.6231C91.8147 65.6231 89.9781 66.0677 88.4158 66.9006C86.8536 67.7335 85.636 68.9174 84.9169 70.3025C84.1979 71.6876 84.0098 73.2118 84.3763 74.6822C84.7429 76.1526 85.6477 77.5033 86.9763 78.5634C88.3048 79.6236 89.9975 80.3455 91.8403 80.638C93.6831 80.9305 95.5932 80.7804 97.3291 80.2066C99.0649 79.6329 100.549 78.6613 101.592 77.4147C102.636 76.1682 103.193 74.7026 103.193 73.2034C103.191 71.1936 102.189 69.2669 100.408 67.8458C98.627 66.4247 96.2123 65.6254 93.6936 65.6231V65.6231Z" fill="#E6E6E6"/>
<path d="M92.9363 76.4293C92.9148 76.4293 92.8932 76.4288 92.8716 76.4279C92.6811 76.4206 92.4948 76.3804 92.3256 76.3103C92.1563 76.2401 92.0081 76.1415 91.891 76.0214L90.2005 74.2872C90.0938 74.1777 90.0151 74.0525 89.969 73.9188C89.9228 73.7851 89.9102 73.6454 89.9317 73.5078C89.9533 73.3702 90.0086 73.2373 90.0945 73.1167C90.1804 72.9961 90.2953 72.8902 90.4325 72.8051L90.4933 72.7673C90.6305 72.6821 90.7874 72.6192 90.9551 72.5824C91.1227 72.5456 91.2978 72.5355 91.4703 72.5527C91.6429 72.5699 91.8095 72.6141 91.9606 72.6827C92.1117 72.7513 92.2444 72.843 92.3511 72.9526C92.4365 73.04 92.5445 73.1118 92.6679 73.1628C92.7912 73.2139 92.9269 73.2432 93.0657 73.2486C93.2045 73.254 93.3431 73.2354 93.4721 73.1941C93.6011 73.1528 93.7173 73.0898 93.813 73.0094L97.2453 70.1179C97.4869 69.9149 97.8196 69.7966 98.1704 69.7889C98.5212 69.7813 98.8615 69.8851 99.1166 70.0773L99.1728 70.1202C99.2991 70.2155 99.4005 70.3298 99.4713 70.4565C99.5422 70.5831 99.581 70.7197 99.5857 70.8583C99.5904 70.997 99.5608 71.135 99.4987 71.2645C99.4365 71.394 99.3429 71.5125 99.2233 71.6132L93.8968 76.0994C93.7732 76.2036 93.6243 76.2866 93.4592 76.3434C93.294 76.4001 93.1161 76.4293 92.9363 76.4293Z" fill="#E6E6E6"/>
<path d="M179.609 229.07C154.724 229.07 126.125 207.035 100.823 217.504C24.2125 249.202 34.7583 196.16 12.7488 176.433L13.4714 175.277C37.7563 192.652 68.0768 206.789 101.155 216.159C131.048 224.627 161.165 228.55 188.238 227.515L188.285 228.905C185.426 229.015 182.534 229.07 179.609 229.07Z" fill="#F2F2F2"/>
<path d="M145.473 80.0901C148.346 80.0901 150.675 77.5983 150.675 74.5245C150.675 71.4507 148.346 68.9588 145.473 68.9588C142.601 68.9588 140.272 71.4507 140.272 74.5245C140.272 77.5983 142.601 80.0901 145.473 80.0901Z" fill="#E6E6E6"/>
<path d="M205.551 166.915C203.173 168.179 200.739 165.17 203.163 163.962C205.541 162.698 207.975 165.707 205.551 166.915Z" fill="#E6E6E6"/>
<path d="M191.863 65.6088C195.604 65.6088 198.637 63.189 198.637 60.204C198.637 57.2191 195.604 54.7993 191.863 54.7993C188.122 54.7993 185.09 57.2191 185.09 60.204C185.09 63.189 188.122 65.6088 191.863 65.6088Z" fill="#FF6584"/>
<path opacity="0.3" d="M215.554 89.8216L254.097 3.8147e-06L211.775 88.7464C211.565 88.957 211.422 89.2045 211.356 89.4681C211.291 89.7318 211.305 90.0042 211.398 90.2626C211.491 90.5211 211.659 90.7581 211.89 90.9542C212.12 91.1502 212.406 91.2995 212.723 91.3898C213.041 91.4801 213.381 91.5087 213.715 91.4732C214.048 91.4378 214.367 91.3393 214.644 91.186C214.92 91.0327 215.147 90.829 215.306 90.5917C215.464 90.3544 215.549 90.0904 215.554 89.8216H215.554Z" fill="#F0F0F0"/>
<path d="M176.65 199.25C180.29 199.25 183.24 196.896 183.24 193.992C183.24 191.088 180.29 188.733 176.65 188.733C173.011 188.733 170.06 191.088 170.06 193.992C170.06 196.896 173.011 199.25 176.65 199.25Z" fill="#F2F2F2"/>
<path d="M112.823 195.998C112.823 195.998 96.3945 204.534 100.739 210.206C100.889 210.402 81.1144 231.241 81.1144 231.241L43.7857 229.35L42.4706 239.32L75.7032 247C75.7032 247 83.8332 251.766 90.1139 246.515C96.3945 241.264 117.315 225.183 117.315 225.183L118.324 257.649L107.822 302.638L123.502 301.844L138.764 256.71L144.398 205.583L112.823 195.998Z" fill="#2F2E41"/>
<path d="M124.526 144.766L117.617 148.944L109.743 162.355L117.315 170.56C117.315 170.56 123.684 179.368 113.489 187.898C103.294 196.429 95.4651 205.539 103.625 205.214C111.785 204.888 144.835 218.302 145.053 207.313C145.27 196.324 145.71 187.898 145.71 187.898L154.375 170.362C154.375 170.362 159.537 159.901 155.913 156.769C152.289 153.638 147.436 149.636 147.436 149.636L138.611 142.594H130.642L124.526 144.766Z" fill="#1154A6"/>
<path d="M137.423 119C152.922 126.037 140.198 144.606 124.41 137.993C108.911 130.956 121.635 112.388 137.423 119Z" fill="#A0616A"/>
<path d="M145.71 122.902C144.624 124.029 142.355 123.5 137.912 124.305C137.922 123.103 137.748 121.905 137.394 120.736C137.063 122.183 136.339 123.554 135.272 124.752C131.413 125.093 136.143 134.446 134.168 141.322C131.622 126.816 126.269 130.616 128.973 133.494C130.705 135.336 129.551 140.862 124.356 138.099C115.786 141.349 103.58 125.204 117.108 117.633C116.866 113.54 122.573 112.894 126.088 114.152C134.616 109.082 144.36 115.578 145.71 122.902Z" fill="#2F2E41"/>
<path d="M105.943 112.316C102.493 129.245 83.9973 109.203 75.301 125.863C72.5667 131.896 77.258 136.212 80.2254 141.22C80.9027 145.335 74.193 147.423 73.4901 151.211C73.2945 159.897 90.8546 159.365 95.7637 153.886C100.808 148.149 94.7844 140.453 97.8162 134.296C102.077 125.748 119.407 125.685 120.917 115.74C117.993 112.418 110.131 108.613 105.943 112.316Z" fill="#2F2E41"/>
<path d="M119.922 113.971C119.809 114.008 119.696 114.046 119.595 114.089H119.589C119.494 114.127 119.399 114.165 119.304 114.208C119.292 114.212 119.286 114.217 119.274 114.222C119.149 114.127 119.025 114.032 118.894 113.937C118.86 114.092 118.868 114.25 118.918 114.402L118.936 114.459C119.054 114.558 119.179 114.653 119.31 114.753C119.429 114.682 119.542 114.606 119.66 114.535C119.732 114.487 119.803 114.44 119.88 114.392C119.892 114.269 119.91 114.127 119.928 113.971L119.922 113.971ZM123.498 108.699C120.849 108.215 119.993 110.979 119.738 112.311C118.775 107.476 114.771 108.997 116.155 112.297C116.596 113.274 117.291 114.166 118.193 114.914C118.318 115.028 118.454 115.141 118.597 115.255C118.436 115.919 119.244 115.748 120.338 115.137C121.145 114.679 121.891 114.156 122.566 113.577C124.746 111.752 126.445 109.31 123.498 108.699V108.699ZM123.582 111.42C122.764 112.261 121.847 113.037 120.843 113.738C120.528 113.966 120.207 114.184 119.88 114.392C119.874 114.435 119.874 114.473 119.868 114.506C119.845 114.552 119.818 114.597 119.785 114.639C119.452 115.118 119.078 114.857 118.935 114.459C118.924 114.445 118.906 114.43 118.894 114.416C118.419 114.025 118.006 113.589 117.664 113.117C115.21 109.723 119.161 107.414 118.965 113.752C118.929 113.811 118.905 113.873 118.894 113.937C118.86 114.092 118.868 114.25 118.918 114.402L118.936 114.459C119.054 114.558 119.179 114.653 119.31 114.753C119.429 114.682 119.542 114.606 119.66 114.535C119.732 114.487 119.803 114.44 119.88 114.392C119.892 114.269 119.91 114.127 119.928 113.971V113.966C120.082 112.695 120.504 110.41 121.282 109.789C122.993 108.741 125.21 109.874 123.582 111.42V111.42ZM119.922 113.971C119.809 114.008 119.696 114.046 119.595 114.089H119.589C119.494 114.127 119.399 114.165 119.304 114.208C119.292 114.212 119.286 114.217 119.274 114.222C119.149 114.127 119.025 114.032 118.894 113.937C118.86 114.092 118.868 114.25 118.918 114.402L118.936 114.459C119.054 114.558 119.179 114.653 119.31 114.753C119.429 114.682 119.542 114.606 119.66 114.535C119.732 114.487 119.803 114.44 119.88 114.392C119.892 114.269 119.91 114.127 119.928 113.971L119.922 113.971Z" fill="#2F2E41"/>
<path d="M263.175 207.305L257.451 219.217L230.598 261.482L254.193 310.65L266.371 308.085L256.334 261.482L285.129 233.564L319.326 252.072C319.326 252.072 334.492 261.519 340.262 252.563C346.032 243.607 383.366 224.557 383.366 224.557L374.129 216.695L331.137 232.749L301.464 199.423L263.175 207.305Z" fill="#2F2E41"/>
<path d="M292.058 151.119L282.635 143.04L266.472 141.266L246.666 152.329L246.866 164.575L256.656 193.431C256.656 193.431 252.927 214.163 263.343 213.955C273.76 213.747 279.437 209.603 283.68 210.447C287.922 211.29 305.957 214.88 307.1 211.12C308.242 207.36 314.318 210.052 314.051 206.495C313.784 202.938 297.605 177.296 297.605 177.296L301.627 151.652L292.058 151.119Z" fill="#1154A6"/>
<path d="M351.72 113.934C351.804 114.603 351.704 115.28 351.425 115.915C351.146 116.551 350.696 117.13 350.106 117.612C349.517 118.093 348.802 118.466 348.013 118.703C347.223 118.941 346.378 119.037 345.536 118.986L323.867 151.87L318.05 144.743L340.198 113.708C340.4 112.586 341.111 111.562 342.196 110.83C343.281 110.098 344.664 109.71 346.085 109.737C347.505 109.765 348.863 110.208 349.902 110.981C350.94 111.754 351.587 112.805 351.72 113.934V113.934Z" fill="#FFB6B6"/>
<path d="M283.503 157.233C283.503 157.233 282.644 163.082 290.896 164.53C299.149 165.978 322.012 155.554 325.761 153.962C326.934 153.463 328.527 151.019 330.161 147.897C330.895 146.496 331.637 144.958 332.353 143.397C332.767 142.494 334.752 142.248 335.142 141.353C335.531 140.462 334.325 138.923 334.677 138.083C336.347 134.1 337.53 130.939 337.53 130.939L332.06 122.741C324.41 125.968 320.487 133.076 317.601 141.265L283.503 157.233Z" fill="#1154A6"/>
<path d="M187.124 121.485C187.253 122.15 187.562 122.785 188.032 123.345C188.501 123.905 189.118 124.375 189.84 124.724C190.562 125.072 191.371 125.291 192.21 125.363C193.048 125.435 193.897 125.36 194.695 125.142L225.988 152.652L229.386 144.591L198.208 118.966C197.661 117.92 196.652 117.071 195.372 116.579C194.092 116.087 192.63 115.987 191.264 116.297C189.898 116.608 188.722 117.307 187.959 118.263C187.196 119.22 186.899 120.366 187.124 121.485V121.485Z" fill="#FFB6B6"/>
<path d="M266.75 149.784C266.75 149.784 269.417 155.276 261.881 158.326C254.345 161.376 228.94 155.849 224.812 155.056C223.519 154.807 221.21 152.759 218.649 150.063C217.499 148.853 216.299 147.511 215.116 146.144C214.431 145.352 212.433 145.51 211.774 144.721C211.118 143.937 211.802 142.205 211.199 141.463C208.333 137.939 206.197 135.116 206.197 135.116L208.921 126.086C217.339 127.683 223.367 133.781 228.729 141.134L266.75 149.784Z" fill="#1154A6"/>
<path d="M274.876 139.211C283.37 139.211 290.255 133.717 290.255 126.939C290.255 120.162 283.37 114.668 274.876 114.668C266.382 114.668 259.497 120.162 259.497 126.939C259.497 133.717 266.382 139.211 274.876 139.211Z" fill="#FFB6B6"/>
<path d="M292.432 119.913C290.814 117.916 287.778 116.585 284.835 116.959C284.561 115.46 283.777 114.05 282.568 112.882C281.36 111.715 279.773 110.834 277.98 110.336C276.188 109.838 274.258 109.742 272.402 110.058C270.546 110.375 268.834 111.092 267.453 112.131C266.999 111.875 266.47 111.718 265.917 111.674C265.365 111.63 264.807 111.7 264.299 111.879C263.286 112.246 262.404 112.811 261.736 113.52C260.047 115.201 258.961 117.215 258.593 119.349C258.225 121.483 258.589 123.656 259.647 125.638C259.287 124.595 260.598 123.613 261.922 123.379C263.245 123.145 264.634 123.367 265.977 123.214C267.698 123.019 269.244 122.222 270.968 122.043C272.429 121.967 273.896 122.117 275.286 122.486C276.675 122.854 278.139 123.011 279.601 122.948C281.052 122.811 282.921 127.197 282.896 130.287C282.891 130.872 283.042 131.624 283.759 131.748C284.642 131.901 285.154 130.929 285.994 130.664C286.382 130.575 286.797 130.61 287.153 130.761C287.509 130.912 287.777 131.167 287.902 131.473C288.008 131.784 288.019 132.11 287.935 132.425C287.851 132.741 287.673 133.035 287.418 133.284C286.901 133.779 286.288 134.203 285.601 134.542L285.947 134.771C286.276 135.048 286.715 135.226 287.19 135.273C287.664 135.32 288.144 135.234 288.548 135.029C289.341 134.6 289.984 134.016 290.415 133.333C292.037 131.331 293.197 129.114 293.839 126.785C294.381 124.447 294.049 121.91 292.432 119.913Z" fill="#2F2E41"/>
<path d="M406.208 168.313C386.371 180.302 346.9 176.515 334.651 197.05C297.565 259.227 265.837 211.863 233.366 206.741L233.067 205.471C265.573 207.623 300.44 204.285 333.899 195.818C364.135 188.167 391.112 176.785 411.911 162.917L413 164.002C410.804 165.467 408.54 166.904 406.208 168.313Z" fill="#F2F2F2"/>
<path d="M322.337 331.162C321.865 332.279 52.115 332.279 51.6053 331.165C52.0771 330.045 321.827 330.046 322.337 331.162Z" fill="#CCCCCC"/>
</g>
<defs>
<clipPath id="clip0_2_8">
<rect width="413" height="332" fill="white"/>
</clipPath>
</defs>
</svg>
