<svg width="430" height="238" viewBox="0 0 430 238" fill="none" xmlns="http://www.w3.org/2000/svg">
<path d="M400.874 224.144C400.757 228.431 400.029 232.68 398.71 236.766C398.681 236.861 398.648 236.955 398.617 237.049H390.543C390.551 236.964 390.56 236.87 390.569 236.766C391.107 230.665 388.032 193.97 384.321 187.62C384.646 188.135 401.5 204.756 400.874 224.144Z" fill="#F1F1F1"/>
<path d="M400.268 236.766C400.2 236.861 400.13 236.956 400.058 237.049H394.001C394.047 236.969 394.1 236.874 394.162 236.766C395.162 234.986 398.124 229.663 400.873 224.144C403.826 218.214 406.538 212.058 406.309 209.83C406.38 210.333 408.424 225.65 400.268 236.766Z" fill="#F1F1F1"/>
<path d="M22.3438 227.465C22.4303 230.648 22.9713 233.804 23.9508 236.839C23.9725 236.91 23.9966 236.979 24.02 237.049H30.0163C30.01 236.986 30.0035 236.916 29.9972 236.839C29.5974 232.308 31.8815 205.055 34.6376 200.338C34.3961 200.721 21.8789 213.065 22.3438 227.465Z" fill="#F1F1F1"/>
<path d="M22.7937 236.839C22.8439 236.91 22.896 236.98 22.9494 237.049H27.448C27.4139 236.989 27.3744 236.919 27.3286 236.839C26.5855 235.517 24.3859 231.563 22.3442 227.465C20.151 223.06 18.1371 218.489 18.3067 216.834C18.2541 217.207 16.7358 228.583 22.7937 236.839Z" fill="#F1F1F1"/>
<path d="M315.292 166.945C270.003 148.022 229.031 148.741 190.438 160.291C130.974 150.052 90.2556 151.636 64.1371 166.945V119.416H315.292V166.945Z" fill="#CBCBCB"/>
<path d="M315.292 153.874C273.568 135.235 231.895 134.031 189.594 153.874C146.267 141.575 104.383 141.703 63.8961 153.874V9.38691C106.941 -3.27994 148.813 -2.97554 189.594 9.38691C232.672 -2.93285 274.609 -3.32357 315.292 9.38691V153.874Z" fill="#E5E5E5"/>
<path d="M75.2029 27.3176L73.7994 23.7759C74.3495 23.5641 87.4937 18.554 106.784 15.9985C124.618 13.6352 151.189 13.0711 176.496 23.8001L174.973 27.2933C150.512 16.9233 124.727 17.4693 107.402 19.7529C88.5457 22.2391 75.3342 27.267 75.2029 27.3176Z" fill="white"/>
<path d="M75.2029 40.6257L73.7994 37.084C74.3495 36.8721 87.4937 31.8621 106.784 29.3065C124.618 26.9436 151.189 26.3794 176.496 37.1081L174.973 40.6013C150.512 30.2313 124.727 30.7769 107.402 33.061C88.5457 35.5472 75.3342 40.5751 75.2029 40.6257Z" fill="white"/>
<path d="M75.2029 53.9337L73.7994 50.392C74.3495 50.1801 87.4937 45.1701 106.784 42.6145C124.618 40.2513 151.189 39.6872 176.496 50.4162L174.973 53.9093C150.512 43.5394 124.727 44.085 107.402 46.369C88.5457 48.8552 75.3342 53.8831 75.2029 53.9337Z" fill="white"/>
<path d="M75.2029 67.2417L73.7994 63.7C74.3495 63.4882 87.4937 58.4782 106.784 55.9226C124.618 53.5598 151.189 52.9949 176.496 63.7242L174.973 67.2174C150.512 56.8474 124.727 57.3932 107.402 59.677C88.5457 62.1632 75.3342 67.1911 75.2029 67.2417Z" fill="white"/>
<path d="M75.2029 80.5498L73.7994 77.0081C74.3495 76.7962 87.4937 71.7862 106.784 69.2306C124.618 66.8674 151.189 66.3032 176.496 77.0322L174.973 80.5254C150.512 70.1552 124.727 70.7013 107.402 72.9851C88.5457 75.4713 75.3342 80.4992 75.2029 80.5498Z" fill="white"/>
<path d="M75.2029 93.8578L73.7994 90.3162C74.3495 90.1043 87.4937 85.0943 106.784 82.5387C124.618 80.1759 151.189 79.6113 176.496 90.3403L174.973 93.8335C150.512 83.4632 124.727 84.0095 107.402 86.2931C88.5457 88.7794 75.3342 93.8072 75.2029 93.8578Z" fill="white"/>
<path d="M201.021 121.9L199.618 118.358C200.168 118.146 213.312 113.136 232.602 110.581C250.437 108.218 277.008 107.653 302.315 118.382L300.791 121.875C276.331 111.505 250.545 112.051 233.221 114.335C214.364 116.821 201.153 121.849 201.021 121.9Z" fill="#1154A6"/>
<path d="M199.838 96.3591V23.6736L201.191 23.2568C235.487 12.6944 269.616 12.6965 302.631 23.2631L303.963 23.6896V96.2624L301.354 95.2913C266.998 82.5069 233.74 82.4992 202.505 95.2688L199.838 96.3591ZM250.726 81.8866C266.868 81.8866 283.328 84.8532 300.107 90.7864V26.4592C268.718 16.6993 236.293 16.7047 203.694 26.4748V90.6982C218.673 84.88 234.627 81.8908 250.726 81.8866Z" fill="white"/>
<path d="M300.187 120.016L300.692 107.92L318.02 73.9514C318.509 72.9856 319.306 72.2047 320.288 71.7286C320.889 71.4328 321.545 71.2581 322.216 71.2149C322.886 71.1718 323.559 71.2609 324.195 71.4771C324.931 71.7273 325.598 72.1418 326.145 72.6882C326.692 73.2346 327.103 73.8982 327.347 74.6271C327.452 74.9419 327.525 75.2658 327.567 75.5945C327.69 76.5699 327.515 77.5594 327.064 78.4361L309.712 112.451L300.187 120.016Z" fill="#1154A6"/>
<path d="M322.446 71.4429L303.636 108.316L302.202 107.605L320.394 71.9419C321.032 71.6272 321.733 71.4568 322.446 71.4429Z" fill="#3F3D56"/>
<path d="M327.327 75.6246L309.235 111.092L307.8 110.381L326.571 73.5845C326.802 73.9317 326.986 74.3073 327.118 74.7016C327.218 75.0019 327.288 75.311 327.327 75.6246Z" fill="#3F3D56"/>
<path d="M325.526 72.4597L306.508 109.74L305.074 109.029L324.116 71.7018C324.319 71.7703 324.517 71.8524 324.708 71.9477C324.997 72.0914 325.271 72.2629 325.526 72.4597Z" fill="#3F3D56"/>
<path d="M302.362 117.984L300.449 119.504L300.609 115.497C301.266 115.722 301.977 116.697 302.362 117.984Z" fill="#3F3D56"/>
<path d="M113.61 161.647L111.319 154.795L113.76 132.266C113.827 131.627 114.105 131.026 114.552 130.558C114.824 130.268 115.153 130.035 115.518 129.873C115.883 129.71 116.277 129.621 116.677 129.61C117.141 129.597 117.601 129.69 118.023 129.882C118.444 130.074 118.814 130.359 119.106 130.715C119.231 130.869 119.341 131.034 119.434 131.209C119.71 131.728 119.823 132.316 119.758 132.898L117.314 155.458L113.61 161.647Z" fill="#1154A6"/>
<path d="M115.694 129.952L113.045 154.408L112.094 154.307L114.656 130.655C114.945 130.347 115.3 130.107 115.694 129.952Z" fill="#3F3D56"/>
<path d="M119.307 131.275L116.758 154.799L115.807 154.698L118.451 130.294C118.654 130.44 118.836 130.611 118.994 130.804C119.113 130.951 119.218 131.109 119.307 131.275Z" fill="#3F3D56"/>
<path d="M117.629 129.883L114.95 154.608L113.999 154.508L116.681 129.751C116.809 129.748 116.937 129.753 117.064 129.766C117.256 129.786 117.445 129.825 117.629 129.883Z" fill="#3F3D56"/>
<path d="M114.391 160.064L113.647 161.307L112.884 159.039C113.298 159.029 113.903 159.425 114.391 160.064Z" fill="#3F3D56"/>
<path d="M361.759 153.612C361.498 154.062 361.15 154.457 360.734 154.775C360.318 155.092 359.843 155.325 359.336 155.462C358.311 155.737 357.218 155.599 356.296 155.08C355.374 154.56 354.7 153.701 354.42 152.691C354.141 151.681 354.281 150.602 354.808 149.694C354.817 149.678 354.826 149.663 354.835 149.648C354.947 149.463 355.073 149.286 355.212 149.12L351.844 125.453L351.743 124.744L351.059 119.914L350.958 119.218L351.331 119.236L357.856 119.53L359.606 119.607L359.825 124.013L361.066 148.783C361.715 149.394 362.135 150.203 362.261 151.079C362.387 151.955 362.21 152.847 361.759 153.612H361.759Z" fill="#FFB8B8"/>
<path d="M351.763 124.958L360.048 124.209C360.478 124.169 360.874 123.963 361.151 123.636C361.427 123.309 361.561 122.888 361.524 122.464L359.989 105.475C359.841 103.839 359.039 102.328 357.761 101.274C356.483 100.221 354.832 99.7107 353.173 99.8568C351.513 100.003 349.98 100.793 348.912 102.053C347.843 103.313 347.326 104.941 347.474 106.577C347.485 106.694 347.499 106.811 347.516 106.927L350.001 123.59C350.058 123.972 350.252 124.32 350.548 124.573C350.844 124.825 351.222 124.965 351.613 124.965C351.663 124.966 351.713 124.964 351.763 124.958Z" fill="#CBCBCB"/>
<path d="M358.043 111.234C358.881 108.893 358.92 106.347 358.154 103.983C357.387 101.619 355.858 99.5663 353.799 98.1387C350.674 96.031 346.399 95.2743 341.794 100.679C336.222 107.277 332.248 115.039 330.173 123.378L349.03 126.404C349.03 126.404 355.442 118.676 358.043 111.234Z" fill="#CBCBCB"/>
<path d="M327.545 232.988H322.169L319.611 212.543H327.546L327.545 232.988Z" fill="#FFB8B8"/>
<path d="M311.802 237.91H328.699V231.473H318.33C316.599 231.473 314.938 232.152 313.714 233.359C312.49 234.566 311.802 236.203 311.802 237.91Z" fill="#2F2E41"/>
<path d="M371.745 228.365L366.641 230.029L357.704 211.408L365.238 208.953L371.745 228.365Z" fill="#FFB8B8"/>
<path d="M358.363 237.91L374.406 232.682L372.357 226.57L362.513 229.779C360.869 230.314 359.508 231.472 358.73 232.997C357.952 234.522 357.82 236.289 358.363 237.91Z" fill="#2F2E41"/>
<path d="M346.206 92.7779C352.154 92.7779 356.977 88.0236 356.977 82.1588C356.977 76.294 352.154 71.5397 346.206 71.5397C340.258 71.5397 335.436 76.294 335.436 82.1588C335.436 88.0236 340.258 92.7779 346.206 92.7779Z" fill="#FFB8B8"/>
<path d="M336.776 227.297L341.768 194.808C341.821 194.461 341.995 194.143 342.26 193.909C342.524 193.675 342.863 193.538 343.219 193.523C343.574 193.507 343.924 193.614 344.208 193.825C344.492 194.036 344.694 194.337 344.777 194.678L352.38 225.64C352.5 226.114 352.795 226.527 353.208 226.798C353.621 227.069 354.122 227.178 354.612 227.104L375.584 223.781C375.862 223.737 376.127 223.634 376.362 223.481C376.597 223.327 376.795 223.126 376.945 222.89C377.094 222.655 377.19 222.391 377.227 222.115C377.264 221.84 377.241 221.56 377.159 221.294L349.813 132.402C349.735 132.149 349.726 131.881 349.786 131.624L350.696 127.732C350.796 127.311 350.75 126.868 350.565 126.475C350.38 126.082 350.067 125.761 349.676 125.564C345.952 123.691 336.52 119.796 329.403 124.062C329.172 124.201 328.972 124.385 328.815 124.603C328.658 124.82 328.548 125.067 328.491 125.328L307.128 224.325C307.07 224.594 307.07 224.872 307.129 225.141C307.188 225.41 307.305 225.664 307.471 225.885C307.636 226.107 307.848 226.291 308.091 226.426C308.335 226.561 308.604 226.643 308.882 226.668L334.648 228.943C334.707 228.948 334.765 228.951 334.824 228.951C335.296 228.95 335.751 228.783 336.109 228.479C336.467 228.176 336.703 227.757 336.774 227.297L336.776 227.297Z" fill="#2F2E41"/>
<path d="M353.348 74.6561C352.536 74.1746 351.815 73.5571 351.219 72.8315C350.924 72.4649 350.73 72.0297 350.656 71.5678C350.581 71.1058 350.629 70.6328 350.793 70.1942C351.338 69.0104 352.954 68.6377 354.208 69.0394C355.461 69.441 356.429 70.4108 357.344 71.3451C358.151 72.1666 358.981 73.0279 359.362 74.1083C359.743 75.1888 359.548 76.5589 358.596 77.2148C357.662 77.8581 356.319 77.5948 355.421 76.9039C354.573 76.1485 353.897 75.2246 353.437 74.1931L353.348 74.6561Z" fill="#2F2E41"/>
<path d="M356.996 71.6305C357.055 68.6385 360.515 66.4928 363.502 67.0233C366.49 67.5537 368.786 70.0649 369.935 72.8346C372.364 78.6865 370.541 85.3639 368.201 91.253C365.861 97.1422 362.965 103.116 363.307 109.431C363.538 112.843 364.699 116.131 366.669 118.947C368.638 121.763 371.342 124.002 374.495 125.428C371.124 126.935 367.094 125.378 364.261 123.029C357.969 117.813 355.54 108.525 358.489 100.96C359.944 97.2282 362.508 94.0357 364.509 90.5591C366.51 87.0825 367.979 82.985 366.945 79.1193C365.912 75.2536 361.514 72.1242 357.755 73.6197L356.996 71.6305Z" fill="#2F2E41"/>
<path d="M345.56 86.871C346.499 85.3068 347.446 83.253 345.73 81.8855C345.357 81.6017 344.93 81.3943 344.474 81.2755C344.019 81.1567 343.544 81.1289 343.077 81.1937C341.142 81.4238 339.035 81.5184 337.162 80.8254C336.46 80.5871 335.813 80.212 335.261 79.7225C334.708 79.2329 334.261 78.6389 333.946 77.9757C332.981 75.7171 334.19 72.9725 336.211 71.5448C337.447 70.7032 338.908 70.2402 340.411 70.2139C341.913 70.1877 343.39 70.5994 344.656 71.3974C347.274 70.2573 350.45 70.7644 352.829 72.3339C355.207 73.9033 356.834 76.4166 357.718 79.1003C358.533 81.4102 358.673 83.8992 358.123 86.2839C357.681 87.9428 356.839 89.4722 355.67 90.7425C354.501 92.0128 353.039 92.9867 351.407 93.5816C350.771 93.8288 350.081 93.907 349.405 93.8084C348.729 93.7097 348.091 93.4377 347.556 93.0196C346.685 92.2497 346.016 91.2833 345.607 90.2032C345.25 89.0198 345.059 87.7068 345.56 86.871Z" fill="#2F2E41"/>
<path d="M313.609 96.3466C313.662 96.5799 313.697 96.817 313.713 97.0557L332.551 107.77L337.13 105.171L342.011 111.472L334.358 116.849C333.74 117.284 332.996 117.509 332.236 117.491C331.477 117.473 330.745 117.212 330.149 116.748L310.722 101.639C309.845 101.959 308.89 102.009 307.984 101.781C307.078 101.553 306.264 101.058 305.65 100.363C305.036 99.6674 304.651 98.8041 304.547 97.8879C304.443 96.9717 304.624 96.0458 305.067 95.2336C305.509 94.4214 306.192 93.7613 307.024 93.3411C307.857 92.921 308.799 92.7606 309.726 92.8814C310.653 93.0023 311.521 93.3985 312.214 94.0175C312.907 94.6365 313.393 95.4489 313.606 96.3466L313.609 96.3466Z" fill="#FFB8B8"/>
<path d="M333.181 108.278L339.269 116.058C339.443 116.279 339.662 116.461 339.913 116.591C340.164 116.721 340.44 116.796 340.723 116.811C341.006 116.826 341.289 116.781 341.553 116.679C341.816 116.577 342.055 116.42 342.251 116.219L349.144 109.163C349.723 108.74 350.213 108.208 350.584 107.598C350.955 106.989 351.2 106.313 351.306 105.61C351.411 104.906 351.375 104.189 351.199 103.5C351.024 102.81 350.711 102.162 350.281 101.591C349.85 101.021 349.31 100.54 348.69 100.176C348.071 99.8116 347.385 99.5716 346.671 99.4694C345.957 99.3673 345.23 99.4049 344.531 99.5803C343.833 99.7557 343.176 100.065 342.598 100.491C342.539 100.535 342.48 100.58 342.422 100.626L333.778 105.392C333.531 105.528 333.316 105.716 333.149 105.941C332.981 106.167 332.865 106.426 332.809 106.7C332.752 106.974 332.756 107.256 332.82 107.529C332.884 107.801 333.006 108.057 333.18 108.278H333.181Z" fill="#CBCBCB"/>
<path d="M100.535 232.325L106.379 232.324L109.16 210.099L100.534 210.1L100.535 232.325Z" fill="#A0616A"/>
<path d="M99.0444 230.443L110.554 230.443H110.554C112.499 230.443 114.365 231.205 115.74 232.561C117.116 233.917 117.889 235.756 117.889 237.674V237.909L99.0448 237.91L99.0444 230.443Z" fill="#2F2E41"/>
<path d="M55.0304 229.83L60.8089 230.692L66.9277 209.126L59.3521 207.855L55.0304 229.83Z" fill="#A0616A"/>
<path d="M53.8413 227.75L65.2214 229.446L65.2219 229.446C67.1452 229.733 68.8743 230.761 70.0287 232.305C71.1831 233.849 71.6684 235.781 71.3777 237.678L71.3421 237.91L52.7096 235.133L53.8413 227.75Z" fill="#2F2E41"/>
<path d="M73.0495 122.182L79.5384 123.858L79.1067 134.231L79.0532 153.116C79.6925 153.552 80.1825 154.169 80.4584 154.886C80.7342 155.602 80.783 156.384 80.5982 157.129C80.4134 157.873 80.0037 158.545 79.4234 159.054C78.8431 159.564 78.1194 159.888 77.3482 159.984C76.577 160.08 75.7945 159.942 75.1043 159.59C74.414 159.237 73.8486 158.686 73.4828 158.01C73.1169 157.334 72.9679 156.564 73.0554 155.803C73.1429 155.041 73.4629 154.324 73.9729 153.746L71.9789 134.791L73.0495 122.182Z" fill="#A0616A"/>
<path d="M71.9199 110.301C71.9557 109.299 72.2836 108.328 72.8643 107.504C73.4449 106.681 74.2539 106.039 75.1944 105.657C76.0748 105.269 77.0511 105.142 78.0034 105.293C78.9557 105.444 79.8425 105.866 80.555 106.507C81.0671 106.958 81.4733 107.514 81.7451 108.136C82.0169 108.758 82.1479 109.43 82.1289 110.107C82.1461 116.184 80.7547 125.041 80.7406 125.129L80.7184 125.27L71.2338 128.419L71.9199 110.301Z" fill="#CBCBCB"/>
<path d="M88.879 127.55L103.386 123.848L110.092 146.115L110.33 229.069L99.2367 229.001L94.5993 161.86L65.0442 223.899L53.1268 222.489L79.1067 155.985C79.1067 155.985 77.6766 144.235 82.2052 138.36L81.2518 132.25L88.879 127.55Z" fill="#2F2E41"/>
<path d="M79.097 133.09C78.8942 132.847 78.7469 132.564 78.6651 132.26C78.5832 131.955 78.5688 131.637 78.6228 131.327L72.0056 111.755C71.6967 110.84 71.6639 109.856 71.9111 108.923C72.1584 107.99 72.6751 107.148 73.3986 106.499L76.2712 103.924L78.2179 96.247L89.4066 98.9435L88.4847 102.579L93.5485 101.672L104.214 125.092L81.9202 133.878L80.8222 133.895C80.4921 133.896 80.1659 133.824 79.8675 133.685C79.5691 133.545 79.3059 133.342 79.097 133.09Z" fill="#CBCBCB"/>
<path d="M94.6267 116.565L101.02 114.561L106.278 123.555L116.472 139.544C117.248 139.576 117.997 139.839 118.619 140.299C119.24 140.759 119.705 141.395 119.953 142.121C120.2 142.848 120.218 143.631 120.004 144.368C119.79 145.105 119.354 145.76 118.754 146.247C118.154 146.734 117.418 147.03 116.644 147.096C115.869 147.162 115.093 146.995 114.417 146.616C113.741 146.237 113.198 145.665 112.859 144.976C112.52 144.286 112.402 143.511 112.519 142.753L100.558 127.785L94.6267 116.565Z" fill="#A0616A"/>
<path d="M87.2309 107.118C86.7177 106.252 86.4683 105.259 86.5126 104.257C86.5568 103.255 86.8928 102.287 87.4804 101.468C88.0142 100.676 88.7707 100.055 89.6573 99.6805C90.544 99.3063 91.5221 99.1953 92.4717 99.3612C93.1491 99.4726 93.7937 99.7283 94.3606 100.111C94.9274 100.493 95.4029 100.992 95.7538 101.574C99.0625 106.701 102.688 114.92 102.725 115.002L102.782 115.133L96.4735 122.793L87.2309 107.118Z" fill="#CBCBCB"/>
<path d="M86.4962 94.8185C91.4059 94.8185 95.386 90.8943 95.386 86.0536C95.386 81.2129 91.4059 77.2887 86.4962 77.2887C81.5864 77.2887 77.6063 81.2129 77.6063 86.0536C77.6063 90.8943 81.5864 94.8185 86.4962 94.8185Z" fill="#A0616A"/>
<path d="M70.7858 82.3564C75.5151 82.3564 79.349 78.5765 79.349 73.9136C79.349 69.2508 75.5151 65.4708 70.7858 65.4708C66.0565 65.4708 62.2227 69.2508 62.2227 73.9136C62.2227 78.5765 66.0565 82.3564 70.7858 82.3564Z" fill="#2F2E41"/>
<path d="M63.3997 80.9048C64.508 81.6946 65.7921 82.2112 67.1444 82.4114C68.4968 82.6117 69.8781 82.4896 71.1729 82.0556C72.4676 81.6215 73.6381 80.8881 74.5864 79.9166C75.5346 78.9451 76.2332 77.7638 76.6235 76.4716C76.4758 77.6297 76.0862 78.7449 75.4793 79.747C74.8723 80.7491 74.0613 81.6162 73.0973 82.2937C72.1333 82.9711 71.0373 83.4442 69.8786 83.6829C68.7198 83.9217 67.5234 83.921 66.365 83.6809C65.2065 83.4407 64.1111 82.9664 63.1479 82.2879C62.1848 81.6093 61.3748 80.7412 60.769 79.7384C60.1633 78.7356 59.7751 77.6199 59.6288 76.4617C59.4825 75.3035 59.5813 74.1279 59.919 73.0093C59.7272 74.5122 59.9492 76.0383 60.5616 77.4275C61.174 78.8167 62.1543 80.0178 63.3997 80.9048Z" fill="#2F2E41"/>
<path d="M97.1937 80.9141C95.6988 78.2754 95.1268 77.1732 93.1993 75.5686C91.4948 74.1495 89.3982 73.7328 87.7071 75.0774C85.7066 74.2252 83.4807 74.032 81.3599 74.5264C79.2391 75.0208 77.3367 76.1765 75.9351 77.8219C74.5336 79.4672 73.7078 81.5144 73.5803 83.6594C73.4529 85.8043 74.0306 87.9326 75.2276 89.7281C76.4247 91.5235 78.1772 92.8904 80.2249 93.6256C82.2726 94.3609 84.5062 94.4253 86.594 93.8092C88.6817 93.1932 90.5123 91.9296 91.8136 90.2061C93.115 88.4827 93.8178 86.3913 93.8177 84.2427C93.8162 83.8654 93.7931 83.4885 93.7487 83.1137C95.2186 82.9102 95.7238 81.1177 97.1937 80.9141Z" fill="#2F2E41"/>
<path d="M184.148 238H0.482063C0.354212 238 0.231597 237.95 0.141193 237.861C0.0507882 237.772 0 237.651 0 237.525C0 237.399 0.0507882 237.278 0.141193 237.189C0.231597 237.1 0.354212 237.049 0.482063 237.049H184.148C184.276 237.049 184.398 237.1 184.489 237.189C184.579 237.278 184.63 237.399 184.63 237.525C184.63 237.651 184.579 237.772 184.489 237.861C184.398 237.95 184.276 238 184.148 238Z" fill="#CBCBCB"/>
<path d="M429.518 238H245.852C245.724 238 245.602 237.95 245.511 237.861C245.421 237.772 245.37 237.651 245.37 237.525C245.37 237.399 245.421 237.278 245.511 237.189C245.602 237.1 245.724 237.049 245.852 237.049H429.518C429.646 237.049 429.768 237.1 429.859 237.189C429.949 237.278 430 237.399 430 237.525C430 237.651 429.949 237.772 429.859 237.861C429.768 237.95 429.646 238 429.518 238Z" fill="#CBCBCB"/>
<path d="M190.076 9.3869H189.112V153.417H190.076V9.3869Z" fill="#CBCBCB"/>
</svg>
